<?xml version="1.0" encoding="UTF-8" standalone="no"?>
<!DOCTYPE svg PUBLIC "-//W3C//DTD SVG 1.1//EN"
 "http://www.w3.org/Graphics/SVG/1.1/DTD/svg11.dtd">
<!-- Generated by graphviz version 2.43.0 (0)
 -->
<!-- Title: %3 Pages: 1 -->
<svg width="1240pt" height="2597pt"
 viewBox="0.00 0.00 1240.00 2597.17" xmlns="http://www.w3.org/2000/svg" xmlns:xlink="http://www.w3.org/1999/xlink">
<g id="graph0" class="graph" transform="scale(1 1) rotate(0) translate(216 2381.17)">
<title>%3</title>
<polygon fill="white" stroke="transparent" points="-216,216 -216,-2381.17 1024,-2381.17 1024,216 -216,216"/>
<text text-anchor="middle" x="404" y="-2121.17" font-family="Times,serif" font-size="50.00">example.com DNS Trust Graph</text>
<!-- n6 -->
<g id="node1" class="node">
<title>n6</title>
<ellipse fill="#ff00df" stroke="black" cx="403.68" cy="-48.08" rx="130.22" ry="48.17"/>
<text text-anchor="middle" x="403.68" y="-66.88" font-family="Times,serif" font-size="14.00">AS15133 (US)</text>
<text text-anchor="middle" x="403.68" y="-51.88" font-family="Times,serif" font-size="14.00">NAME: EDGECAST, US</text>
<text text-anchor="middle" x="403.68" y="-36.88" font-family="Times,serif" font-size="14.00">REGISTRY: RIPENCC</text>
<text text-anchor="middle" x="403.68" y="-21.88" font-family="Times,serif" font-size="14.00">ALLOC: Mon02Jun2008</text>
</g>
<!-- n5 -->
<g id="node2" class="node">
<title>n5</title>
<ellipse fill="#ff00df" stroke="black" cx="403.68" cy="-475.17" rx="114.28" ry="18"/>
<text text-anchor="middle" x="403.68" y="-471.47" font-family="Times,serif" font-size="14.00">CIDR:93.184.216.0/24</text>
</g>
<!-- n5&#45;&gt;n6 -->
<g id="edge1" class="edge">
<title>n5&#45;&gt;n6</title>
<path fill="none" stroke="grey" stroke-width="2" d="M403.68,-456.98C403.68,-397.73 403.68,-200.35 403.68,-103.56"/>
<polygon fill="grey" stroke="grey" stroke-width="2" points="403.68,-96.48 406.83,-103.48 404.18,-99.98 404.18,-103.48 403.68,-103.48 403.18,-103.48 403.18,-99.98 400.53,-103.48 403.68,-96.48 403.68,-96.48"/>
</g>
<!-- n4 -->
<g id="node3" class="node">
<title>n4</title>
<ellipse fill="#08cf20" stroke="black" cx="403.68" cy="-872.17" rx="90.98" ry="18"/>
<text text-anchor="middle" x="403.68" y="-868.47" font-family="Times,serif" font-size="14.00">[A]93.184.216.34</text>
</g>
<!-- n4&#45;&gt;n5 -->
<g id="edge3" class="edge">
<title>n4&#45;&gt;n5</title>
<path fill="none" stroke="grey" stroke-width="2" d="M403.68,-853.94C403.68,-791.06 403.68,-573.78 403.68,-500.51"/>
<polygon fill="grey" stroke="grey" stroke-width="2" points="403.68,-493.48 406.83,-500.48 404.18,-496.98 404.18,-500.48 403.68,-500.48 403.18,-500.48 403.18,-496.98 400.53,-500.48 403.68,-493.48 403.68,-493.48"/>
</g>
<!-- n3 -->
<g id="node4" class="node">
<title>n3</title>
<ellipse fill="#0099ff" stroke="black" cx="270.68" cy="-1276.17" rx="96.68" ry="18"/>
<text text-anchor="middle" x="270.68" y="-1272.47" font-family="Times,serif" font-size="14.00">a.iana&#45;servers.net.</text>
</g>
<!-- n3&#45;&gt;n4 -->
<g id="edge5" class="edge">
<title>n3&#45;&gt;n4</title>
<path fill="none" stroke="#0099ff" stroke-width="2" d="M273.21,-1258.11C278.75,-1222.56 293.28,-1138.17 315.68,-1070.17 337.07,-1005.19 372.73,-932.66 391.41,-896.42"/>
<polygon fill="#0099ff" stroke="#0099ff" stroke-width="2" points="394.69,-890.09 394.26,-897.75 393.52,-893.43 391.91,-896.53 391.47,-896.3 391.02,-896.07 392.63,-892.97 388.67,-894.85 394.69,-890.09 394.69,-890.09"/>
<text text-anchor="middle" x="371.18" y="-1072.57" font-family="bold" font-size="7.00" fill="#08cf20">example.com. &#45;&gt; NOERROR</text>
</g>
<!-- n7 -->
<g id="node5" class="node">
<title>n7</title>
<ellipse fill="#0099ff" stroke="black" cx="536.68" cy="-1276.17" rx="97.48" ry="18"/>
<text text-anchor="middle" x="536.68" y="-1272.47" font-family="Times,serif" font-size="14.00">b.iana&#45;servers.net.</text>
</g>
<!-- n7&#45;&gt;n4 -->
<g id="edge6" class="edge">
<title>n7&#45;&gt;n4</title>
<path fill="none" stroke="#0099ff" stroke-width="2" d="M531.05,-1258.15C510.02,-1194.59 436.04,-971 411.59,-897.09"/>
<polygon fill="#0099ff" stroke="#0099ff" stroke-width="2" points="409.38,-890.41 414.57,-896.07 410.95,-893.58 412.05,-896.9 411.58,-897.06 411.1,-897.22 410.01,-893.89 408.59,-898.05 409.38,-890.41 409.38,-890.41"/>
<text text-anchor="middle" x="525.18" y="-1072.57" font-family="bold" font-size="7.00" fill="#08cf20">example.com. &#45;&gt; NOERROR</text>
</g>
<!-- n1 -->
<g id="node6" class="node">
<title>n1</title>
<ellipse fill="blue" stroke="black" cx="403.68" cy="-2084.17" rx="96.68" ry="18"/>
<text text-anchor="middle" x="403.68" y="-2080.47" font-family="Times,serif" font-size="14.00" fill="white">e.root&#45;servers.net.</text>
</g>
<!-- n2 -->
<g id="node7" class="node">
<title>n2</title>
<ellipse fill="none" stroke="black" cx="403.68" cy="-1680.17" rx="96.68" ry="18"/>
<text text-anchor="middle" x="403.68" y="-1676.47" font-family="Times,serif" font-size="14.00">h.gtld&#45;servers.net.</text>
</g>
<!-- n1&#45;&gt;n2 -->
<g id="edge7" class="edge">
<title>n1&#45;&gt;n2</title>
<path fill="none" stroke="black" stroke-dasharray="5,2" d="M403.68,-2066.15C403.68,-2002.72 403.68,-1779.91 403.68,-1705.54"/>
<polygon fill="black" stroke="black" points="403.68,-1698.41 406.83,-1705.41 403.68,-1701.91 403.68,-1705.41 403.68,-1705.41 403.68,-1705.41 403.68,-1701.91 400.53,-1705.41 403.68,-1698.41 403.68,-1698.41"/>
<text text-anchor="middle" x="459.18" y="-1880.57" font-family="bold" font-size="7.00" fill="#08cf20">example.com. &#45;&gt; NOERROR</text>
</g>
<!-- n2&#45;&gt;n3 -->
<g id="edge8" class="edge">
<title>n2&#45;&gt;n3</title>
<path fill="none" stroke="black" stroke-dasharray="5,2" d="M394.55,-1661.98C377.02,-1628.33 338.34,-1551.01 315.68,-1482.17 294.68,-1418.41 280.6,-1340.26 274.35,-1301.44"/>
<polygon fill="black" stroke="black" points="273.21,-1294.22 277.42,-1300.64 273.76,-1297.68 274.3,-1301.13 274.3,-1301.13 274.3,-1301.13 273.76,-1297.68 271.19,-1301.63 273.21,-1294.22 273.21,-1294.22"/>
<text text-anchor="middle" x="371.18" y="-1476.57" font-family="bold" font-size="7.00" fill="#08cf20">example.com. &#45;&gt; NOERROR</text>
</g>
<!-- n2&#45;&gt;n7 -->
<g id="edge9" class="edge">
<title>n2&#45;&gt;n7</title>
<path fill="none" stroke="black" stroke-dasharray="5,2" d="M409.3,-1662.15C430.33,-1598.59 504.31,-1375 528.76,-1301.09"/>
<polygon fill="black" stroke="black" points="530.97,-1294.41 531.76,-1302.05 529.87,-1297.74 528.77,-1301.06 528.77,-1301.06 528.77,-1301.06 529.87,-1297.74 525.78,-1300.07 530.97,-1294.41 530.97,-1294.41"/>
<text text-anchor="middle" x="525.18" y="-1476.57" font-family="bold" font-size="7.00" fill="#08cf20">example.com. &#45;&gt; NOERROR</text>
</g>
</g>
</svg>
