<?xml version="1.0" encoding="UTF-8" standalone="no"?>
<!DOCTYPE svg PUBLIC "-//W3C//DTD SVG 1.1//EN"
 "http://www.w3.org/Graphics/SVG/1.1/DTD/svg11.dtd">
<!-- Generated by graphviz version 2.43.0 (0)
 -->
<!-- Title: %3 Pages: 1 -->
<svg width="2607pt" height="3001pt"
 viewBox="0.00 0.00 2607.39 3001.17" xmlns="http://www.w3.org/2000/svg" xmlns:xlink="http://www.w3.org/1999/xlink">
<g id="graph0" class="graph" transform="scale(1 1) rotate(0) translate(216 2785.17)">
<title>%3</title>
<polygon fill="white" stroke="transparent" points="-216,216 -216,-2785.17 2391.39,-2785.17 2391.39,216 -216,216"/>
<text text-anchor="middle" x="1087.69" y="-2525.17" font-family="Times,serif" font-size="50.00">ticonsultores.biz.ni DNS Trust Graph</text>
<!-- n6 -->
<g id="node1" class="node">
<title>n6</title>
<ellipse fill="#ff00df" stroke="black" cx="443.39" cy="-48.08" rx="130.63" ry="48.17"/>
<text text-anchor="middle" x="443.39" y="-66.88" font-family="Times,serif" font-size="14.00">AS16276 (CA)</text>
<text text-anchor="middle" x="443.39" y="-51.88" font-family="Times,serif" font-size="14.00">NAME: OVH, FR</text>
<text text-anchor="middle" x="443.39" y="-36.88" font-family="Times,serif" font-size="14.00">REGISTRY: ARIN</text>
<text text-anchor="middle" x="443.39" y="-21.88" font-family="Times,serif" font-size="14.00">ALLOC: Thu07Mar2013</text>
</g>
<!-- n5 -->
<g id="node2" class="node">
<title>n5</title>
<ellipse fill="#ff00df" stroke="black" cx="443.39" cy="-475.17" rx="114.28" ry="18"/>
<text text-anchor="middle" x="443.39" y="-471.47" font-family="Times,serif" font-size="14.00">CIDR:198.50.128.0/17</text>
</g>
<!-- n5&#45;&gt;n6 -->
<g id="edge1" class="edge">
<title>n5&#45;&gt;n6</title>
<path fill="none" stroke="grey" stroke-width="2" d="M443.39,-456.98C443.39,-397.73 443.39,-200.35 443.39,-103.56"/>
<polygon fill="grey" stroke="grey" stroke-width="2" points="443.39,-96.48 446.54,-103.48 443.89,-99.98 443.89,-103.48 443.39,-103.48 442.89,-103.48 442.89,-99.98 440.24,-103.48 443.39,-96.48 443.39,-96.48"/>
</g>
<!-- n4 -->
<g id="node3" class="node">
<title>n4</title>
<ellipse fill="#08cf20" stroke="black" cx="443.39" cy="-872.17" rx="90.98" ry="18"/>
<text text-anchor="middle" x="443.39" y="-868.47" font-family="Times,serif" font-size="14.00">[A]198.50.239.84</text>
</g>
<!-- n4&#45;&gt;n5 -->
<g id="edge4" class="edge">
<title>n4&#45;&gt;n5</title>
<path fill="none" stroke="grey" stroke-width="2" d="M443.39,-853.94C443.39,-791.06 443.39,-573.78 443.39,-500.51"/>
<polygon fill="grey" stroke="grey" stroke-width="2" points="443.39,-493.48 446.54,-500.48 443.89,-496.98 443.89,-500.48 443.39,-500.48 442.89,-500.48 442.89,-496.98 440.24,-500.48 443.39,-493.48 443.39,-493.48"/>
</g>
<!-- n1 -->
<g id="node4" class="node">
<title>n1</title>
<ellipse fill="blue" stroke="black" cx="1179.39" cy="-2488.17" rx="96.38" ry="18"/>
<text text-anchor="middle" x="1179.39" y="-2484.47" font-family="Times,serif" font-size="14.00" fill="white">c.root&#45;servers.net.</text>
</g>
<!-- n2 -->
<g id="node5" class="node">
<title>n2</title>
<ellipse fill="none" stroke="black" cx="550.39" cy="-1680.17" rx="75.29" ry="18"/>
<text text-anchor="middle" x="550.39" y="-1676.47" font-family="Times,serif" font-size="14.00">dns&#45;ext.nic.cr.</text>
</g>
<!-- n1&#45;&gt;n2 -->
<g id="edge7" class="edge">
<title>n1&#45;&gt;n2</title>
<path fill="none" stroke="black" stroke-dasharray="5,2" d="M1114.45,-2474.77C1007.65,-2451.97 791.8,-2395.46 641.39,-2287.17"/>
<path fill="none" stroke="black" stroke-dasharray="5,2" d="M641.39,-2285.17C541.46,-2213.22 484.12,-2214.36 433.39,-2102.17 368.14,-1957.86 487.12,-1768.94 533.25,-1704.14"/>
<polygon fill="black" stroke="black" points="537.47,-1698.26 535.94,-1705.78 535.43,-1701.1 533.39,-1703.94 533.39,-1703.94 533.39,-1703.94 535.43,-1701.1 530.83,-1702.1 537.47,-1698.26 537.47,-1698.26"/>
<text text-anchor="middle" x="500.89" y="-2082.57" font-family="bold" font-size="7.00" fill="#08cf20">ticonsultores.biz.ni. &#45;&gt; NOERROR</text>
</g>
<!-- n10 -->
<g id="node6" class="node">
<title>n10</title>
<ellipse fill="none" stroke="black" cx="873.39" cy="-1680.17" rx="80.69" ry="18"/>
<text text-anchor="middle" x="873.39" y="-1676.47" font-family="Times,serif" font-size="14.00">ns.ideay.net.ni.</text>
</g>
<!-- n1&#45;&gt;n10 -->
<g id="edge8" class="edge">
<title>n1&#45;&gt;n10</title>
<path fill="none" stroke="black" stroke-dasharray="5,2" d="M641.39,-2285.17C445.4,-2132.18 761.75,-1792.22 851.01,-1702.97"/>
<polygon fill="black" stroke="black" points="856.06,-1697.94 853.32,-1705.11 853.58,-1700.41 851.1,-1702.87 851.1,-1702.87 851.1,-1702.87 853.58,-1700.41 848.88,-1700.64 856.06,-1697.94 856.06,-1697.94"/>
<text text-anchor="middle" x="659.89" y="-2082.57" font-family="bold" font-size="7.00" fill="#08cf20">ticonsultores.biz.ni. &#45;&gt; NOERROR</text>
</g>
<!-- n11 -->
<g id="node7" class="node">
<title>n11</title>
<ellipse fill="#ff1000" stroke="black" cx="1181.39" cy="-1680.17" rx="36.29" ry="18"/>
<text text-anchor="middle" x="1181.39" y="-1676.47" font-family="Times,serif" font-size="14.00">ns.ni.</text>
</g>
<!-- n1&#45;&gt;n11 -->
<g id="edge9" class="edge">
<title>n1&#45;&gt;n11</title>
<path fill="none" stroke="black" stroke-dasharray="5,2" d="M1252.42,-2476.36C1410.4,-2451.34 1775.46,-2384.07 1847.39,-2287.17"/>
<path fill="none" stroke="black" stroke-dasharray="5,2" d="M1847.39,-2285.17C1924.22,-2181.67 1709.21,-2197.44 1622.39,-2102.17 1541.69,-2013.61 1556.9,-1963.1 1472.39,-1878.17 1390.14,-1795.5 1268.5,-1726.46 1212.13,-1696.78"/>
<polygon fill="black" stroke="black" points="1205.91,-1693.52 1213.57,-1693.98 1209.01,-1695.15 1212.11,-1696.77 1212.11,-1696.77 1212.11,-1696.77 1209.01,-1695.15 1210.65,-1699.56 1205.91,-1693.52 1205.91,-1693.52"/>
<text text-anchor="middle" x="1689.89" y="-2082.57" font-family="bold" font-size="7.00" fill="#08cf20">ticonsultores.biz.ni. &#45;&gt; NOERROR</text>
</g>
<!-- n12 -->
<g id="node8" class="node">
<title>n12</title>
<ellipse fill="none" stroke="black" cx="1179.39" cy="-2084.17" rx="57.39" ry="18"/>
<text text-anchor="middle" x="1179.39" y="-2080.47" font-family="Times,serif" font-size="14.00">ns.uu.net.</text>
</g>
<!-- n1&#45;&gt;n12 -->
<g id="edge10" class="edge">
<title>n1&#45;&gt;n12</title>
<path fill="none" stroke="black" stroke-dasharray="5,2" d="M1179.39,-2470.15C1179.39,-2406.72 1179.39,-2183.91 1179.39,-2109.54"/>
<polygon fill="black" stroke="black" points="1179.39,-2102.41 1182.54,-2109.41 1179.39,-2105.91 1179.39,-2109.41 1179.39,-2109.41 1179.39,-2109.41 1179.39,-2105.91 1176.24,-2109.41 1179.39,-2102.41 1179.39,-2102.41"/>
<text text-anchor="middle" x="1246.89" y="-2284.57" font-family="bold" font-size="7.00" fill="#08cf20">ticonsultores.biz.ni. &#45;&gt; NOERROR</text>
</g>
<!-- n13 -->
<g id="node11" class="node">
<title>n13</title>
<ellipse fill="#ff1000" stroke="black" cx="1904.39" cy="-1680.17" rx="42.49" ry="18"/>
<text text-anchor="middle" x="1904.39" y="-1676.47" font-family="Times,serif" font-size="14.00">ns2.ni.</text>
</g>
<!-- n1&#45;&gt;n13 -->
<g id="edge11" class="edge">
<title>n1&#45;&gt;n13</title>
<path fill="none" stroke="black" stroke-dasharray="5,2" d="M1847.39,-2285.17C1921.87,-2197.92 1985.64,-2208.2 2029.39,-2102.17 2090.24,-1954.69 1968.1,-1767.03 1921.46,-1703.4"/>
<polygon fill="black" stroke="black" points="1917.19,-1697.64 1923.89,-1701.39 1919.28,-1700.45 1921.36,-1703.26 1921.36,-1703.26 1921.36,-1703.26 1919.28,-1700.45 1918.83,-1705.14 1917.19,-1697.64 1917.19,-1697.64"/>
<text text-anchor="middle" x="2107.89" y="-2082.57" font-family="bold" font-size="7.00" fill="#08cf20">ticonsultores.biz.ni. &#45;&gt; NOERROR</text>
</g>
<!-- n14 -->
<g id="node13" class="node">
<title>n14</title>
<ellipse fill="#ff1000" stroke="black" cx="1430.39" cy="-1680.17" rx="42.49" ry="18"/>
<text text-anchor="middle" x="1430.39" y="-1676.47" font-family="Times,serif" font-size="14.00">ns3.ni.</text>
</g>
<!-- n1&#45;&gt;n14 -->
<g id="edge12" class="edge">
<title>n1&#45;&gt;n14</title>
<path fill="none" stroke="black" stroke-dasharray="5,2" d="M1847.39,-2285.17C2025.75,-2065.96 1582.1,-1773.24 1460.31,-1698.91"/>
<polygon fill="black" stroke="black" points="1454.09,-1695.13 1461.7,-1696.07 1457.08,-1696.94 1460.07,-1698.76 1460.07,-1698.76 1460.07,-1698.76 1457.08,-1696.94 1458.43,-1701.45 1454.09,-1695.13 1454.09,-1695.13"/>
<text text-anchor="middle" x="1943.89" y="-2082.57" font-family="bold" font-size="7.00" fill="#08cf20">ticonsultores.biz.ni. &#45;&gt; NOERROR</text>
</g>
<!-- n3 -->
<g id="node9" class="node">
<title>n3</title>
<ellipse fill="#0099ff" stroke="black" cx="193.39" cy="-1276.17" rx="89.08" ry="18"/>
<text text-anchor="middle" x="193.39" y="-1272.47" font-family="Times,serif" font-size="14.00">ns1.dongee.com.</text>
</g>
<!-- n2&#45;&gt;n3 -->
<g id="edge13" class="edge">
<title>n2&#45;&gt;n3</title>
<path fill="none" stroke="black" stroke-dasharray="5,2" d="M475.97,-1677.08C354.98,-1669.19 118.5,-1634.02 12.39,-1482.17 -39.31,-1408.18 85.6,-1331.02 153.32,-1296.21"/>
<polygon fill="black" stroke="black" points="159.69,-1292.97 154.88,-1298.95 156.57,-1294.56 153.45,-1296.14 153.45,-1296.14 153.45,-1296.14 156.57,-1294.56 152.02,-1293.34 159.69,-1292.97 159.69,-1292.97"/>
<text text-anchor="middle" x="79.89" y="-1476.57" font-family="bold" font-size="7.00" fill="#08cf20">ticonsultores.biz.ni. &#45;&gt; NOERROR</text>
</g>
<!-- n7 -->
<g id="node10" class="node">
<title>n7</title>
<ellipse fill="#0099ff" stroke="black" cx="443.39" cy="-1276.17" rx="89.08" ry="18"/>
<text text-anchor="middle" x="443.39" y="-1272.47" font-family="Times,serif" font-size="14.00">ns2.dongee.com.</text>
</g>
<!-- n2&#45;&gt;n7 -->
<g id="edge14" class="edge">
<title>n2&#45;&gt;n7</title>
<path fill="none" stroke="black" stroke-dasharray="5,2" d="M492.4,-1668.64C404.49,-1649.22 240.24,-1598.57 169.39,-1482.17 111.32,-1386.77 286.29,-1320.93 383.35,-1292.69"/>
<polygon fill="black" stroke="black" points="390.2,-1290.72 384.34,-1295.68 386.84,-1291.68 383.47,-1292.65 383.47,-1292.65 383.47,-1292.65 386.84,-1291.68 382.6,-1289.62 390.2,-1290.72 390.2,-1290.72"/>
<text text-anchor="middle" x="236.89" y="-1476.57" font-family="bold" font-size="7.00" fill="#08cf20">ticonsultores.biz.ni. &#45;&gt; NOERROR</text>
</g>
<!-- n8 -->
<g id="node12" class="node">
<title>n8</title>
<ellipse fill="#0099ff" stroke="black" cx="693.39" cy="-1276.17" rx="89.08" ry="18"/>
<text text-anchor="middle" x="693.39" y="-1272.47" font-family="Times,serif" font-size="14.00">ns3.dongee.com.</text>
</g>
<!-- n2&#45;&gt;n8 -->
<g id="edge15" class="edge">
<title>n2&#45;&gt;n8</title>
<path fill="none" stroke="black" stroke-dasharray="5,2" d="M552.44,-1662.02C557.03,-1626.28 569.68,-1541.57 593.39,-1474.17 616.57,-1408.26 657.4,-1336.4 679.02,-1300.43"/>
<polygon fill="black" stroke="black" points="682.82,-1294.14 681.89,-1301.76 681.01,-1297.13 679.2,-1300.13 679.2,-1300.13 679.2,-1300.13 681.01,-1297.13 676.5,-1298.5 682.82,-1294.14 682.82,-1294.14"/>
<text text-anchor="middle" x="660.89" y="-1476.57" font-family="bold" font-size="7.00" fill="#08cf20">ticonsultores.biz.ni. &#45;&gt; NOERROR</text>
</g>
<!-- n9 -->
<g id="node14" class="node">
<title>n9</title>
<ellipse fill="#ff1000" stroke="black" cx="1242.39" cy="-1276.17" rx="89.08" ry="18"/>
<text text-anchor="middle" x="1242.39" y="-1272.47" font-family="Times,serif" font-size="14.00">ns4.dongee.com.</text>
</g>
<!-- n2&#45;&gt;n9 -->
<g id="edge16" class="edge">
<title>n2&#45;&gt;n9</title>
<path fill="none" stroke="black" stroke-dasharray="5,2" d="M579.12,-1663.34C639.11,-1630.23 781.92,-1551 900.39,-1482.17 1014.74,-1415.73 1148.88,-1334.29 1209.59,-1297.23"/>
<polygon fill="black" stroke="black" points="1215.93,-1293.36 1211.6,-1299.7 1212.94,-1295.19 1209.96,-1297.01 1209.96,-1297.01 1209.96,-1297.01 1212.94,-1295.19 1208.31,-1294.32 1215.93,-1293.36 1215.93,-1293.36"/>
<text text-anchor="middle" x="977.89" y="-1476.57" font-family="bold" font-size="7.00" fill="#08cf20">ticonsultores.biz.ni. &#45;&gt; NOERROR</text>
</g>
<!-- n10&#45;&gt;n3 -->
<g id="edge17" class="edge">
<title>n10&#45;&gt;n3</title>
<path fill="none" stroke="black" stroke-dasharray="5,2" d="M832.05,-1664.67C752.64,-1635.92 574.66,-1567.05 439.39,-1482.17 349.48,-1425.75 256.85,-1339.46 215.57,-1299.23"/>
<polygon fill="black" stroke="black" points="210.32,-1294.1 217.53,-1296.74 212.82,-1296.55 215.32,-1299 215.32,-1299 215.32,-1299 212.82,-1296.55 213.12,-1301.25 210.32,-1294.1 210.32,-1294.1"/>
<text text-anchor="middle" x="506.89" y="-1476.57" font-family="bold" font-size="7.00" fill="#08cf20">ticonsultores.biz.ni. &#45;&gt; NOERROR</text>
</g>
<!-- n10&#45;&gt;n7 -->
<g id="edge18" class="edge">
<title>n10&#45;&gt;n7</title>
<path fill="none" stroke="black" stroke-dasharray="5,2" d="M865.58,-1662.1C847.83,-1624.69 801.41,-1534.01 742.39,-1474.17 662.37,-1393.02 543.63,-1327.07 482.66,-1296.17"/>
<polygon fill="black" stroke="black" points="476.23,-1292.93 483.9,-1293.26 479.35,-1294.5 482.48,-1296.08 482.48,-1296.08 482.48,-1296.08 479.35,-1294.5 481.06,-1298.89 476.23,-1292.93 476.23,-1292.93"/>
<text text-anchor="middle" x="814.89" y="-1476.57" font-family="bold" font-size="7.00" fill="#08cf20">ticonsultores.biz.ni. &#45;&gt; NOERROR</text>
</g>
<!-- n10&#45;&gt;n8 -->
<g id="edge19" class="edge">
<title>n10&#45;&gt;n8</title>
<path fill="none" stroke="black" stroke-dasharray="5,2" d="M927.59,-1666.75C1029.44,-1640.77 1233.38,-1574.63 1166.39,-1474.17 1080.31,-1345.07 891.96,-1300.44 780.65,-1285.1"/>
<polygon fill="black" stroke="black" points="773.44,-1284.14 780.79,-1281.95 776.9,-1284.6 780.37,-1285.07 780.37,-1285.07 780.37,-1285.07 776.9,-1284.6 779.95,-1288.19 773.44,-1284.14 773.44,-1284.14"/>
<text text-anchor="middle" x="1238.89" y="-1476.57" font-family="bold" font-size="7.00" fill="#08cf20">ticonsultores.biz.ni. &#45;&gt; NOERROR</text>
</g>
<!-- n10&#45;&gt;n9 -->
<g id="edge20" class="edge">
<title>n10&#45;&gt;n9</title>
<path fill="none" stroke="black" stroke-dasharray="5,2" d="M944.6,-1671.73C1048.79,-1656.59 1239.59,-1611.75 1324.39,-1482.17 1364.1,-1421.48 1300.33,-1338.53 1264.34,-1299.36"/>
<polygon fill="black" stroke="black" points="1259.25,-1293.91 1266.33,-1296.88 1261.64,-1296.47 1264.03,-1299.03 1264.03,-1299.03 1264.03,-1299.03 1261.64,-1296.47 1261.72,-1301.18 1259.25,-1293.91 1259.25,-1293.91"/>
<text text-anchor="middle" x="1394.89" y="-1476.57" font-family="bold" font-size="7.00" fill="#08cf20">ticonsultores.biz.ni. &#45;&gt; NOERROR</text>
</g>
<!-- n11&#45;&gt;n11 -->
<g id="edge21" class="edge">
<title>n11&#45;&gt;n11</title>
<path fill="none" stroke="black" stroke-dasharray="5,2" d="M1196.42,-1696.74C1234.46,-1729.88 1289.79,-1724.35 1289.79,-1680.17 1289.79,-1638.05 1239.52,-1631.06 1201.88,-1659.19"/>
<polygon fill="black" stroke="black" points="1196.42,-1663.6 1199.89,-1656.75 1199.14,-1661.4 1201.87,-1659.2 1201.87,-1659.2 1201.87,-1659.2 1199.14,-1661.4 1203.85,-1661.65 1196.42,-1663.6 1196.42,-1663.6"/>
<text text-anchor="middle" x="1309.29" y="-1678.57" font-family="bold" font-size="7.00" fill="#ff1000">TIMEOUT</text>
</g>
<!-- n12&#45;&gt;n2 -->
<g id="edge22" class="edge">
<title>n12&#45;&gt;n2</title>
<path fill="none" stroke="black" stroke-dasharray="5,2" d="M1153.62,-2067.96C1098.58,-2035.36 965.68,-1956.06 856.39,-1886.17 753.68,-1820.48 634.24,-1738.93 579.95,-1701.58"/>
<polygon fill="black" stroke="black" points="573.97,-1697.46 581.52,-1698.84 576.85,-1699.45 579.73,-1701.43 579.73,-1701.43 579.73,-1701.43 576.85,-1699.45 577.95,-1704.03 573.97,-1697.46 573.97,-1697.46"/>
<text text-anchor="middle" x="923.89" y="-1880.57" font-family="bold" font-size="7.00" fill="#08cf20">ticonsultores.biz.ni. &#45;&gt; NOERROR</text>
</g>
<!-- n12&#45;&gt;n10 -->
<g id="edge23" class="edge">
<title>n12&#45;&gt;n10</title>
<path fill="none" stroke="black" stroke-dasharray="5,2" d="M1164.59,-2066.77C1134.85,-2033.56 1066.15,-1955.61 1013.39,-1886.17 964.84,-1822.26 912.84,-1742.85 888.1,-1704.31"/>
<polygon fill="black" stroke="black" points="884.09,-1698.04 890.51,-1702.24 885.97,-1700.99 887.86,-1703.94 887.86,-1703.94 887.86,-1703.94 885.97,-1700.99 885.21,-1705.63 884.09,-1698.04 884.09,-1698.04"/>
<text text-anchor="middle" x="1080.89" y="-1880.57" font-family="bold" font-size="7.00" fill="#08cf20">ticonsultores.biz.ni. &#45;&gt; NOERROR</text>
</g>
<!-- n12&#45;&gt;n11 -->
<g id="edge24" class="edge">
<title>n12&#45;&gt;n11</title>
<path fill="none" stroke="black" stroke-dasharray="5,2" d="M1177.14,-2066.17C1172.77,-2031.07 1163.73,-1948.01 1166.39,-1878.17 1168.76,-1815.93 1175.31,-1742.87 1178.92,-1705.65"/>
<polygon fill="black" stroke="black" points="1179.65,-1698.27 1182.1,-1705.54 1179.31,-1701.75 1178.96,-1705.24 1178.96,-1705.24 1178.96,-1705.24 1179.31,-1701.75 1175.83,-1704.93 1179.65,-1698.27 1179.65,-1698.27"/>
<text text-anchor="middle" x="1233.89" y="-1880.57" font-family="bold" font-size="7.00" fill="#08cf20">ticonsultores.biz.ni. &#45;&gt; NOERROR</text>
</g>
<!-- n12&#45;&gt;n12 -->
<g id="edge25" class="edge">
<title>n12&#45;&gt;n12</title>
<path fill="none" stroke="black" stroke-dasharray="5,2" d="M1198.22,-2101.4C1243.52,-2133.8 1308.58,-2128.06 1308.58,-2084.17 1308.58,-2042.16 1248.99,-2035.1 1204.16,-2062.97"/>
<polygon fill="black" stroke="black" points="1198.22,-2066.94 1202.29,-2060.43 1201.13,-2064.99 1204.04,-2063.05 1204.04,-2063.05 1204.04,-2063.05 1201.13,-2064.99 1205.79,-2065.67 1198.22,-2066.94 1198.22,-2066.94"/>
<text text-anchor="middle" x="1376.08" y="-2082.57" font-family="bold" font-size="7.00" fill="#08cf20">ticonsultores.biz.ni. &#45;&gt; NOERROR</text>
</g>
<!-- n12&#45;&gt;n13 -->
<g id="edge26" class="edge">
<title>n12&#45;&gt;n13</title>
<path fill="none" stroke="black" stroke-dasharray="5,2" d="M1206.49,-2068.14C1319.5,-2005.48 1753,-1765.11 1873.28,-1698.42"/>
<polygon fill="black" stroke="black" points="1879.43,-1695.01 1874.84,-1701.16 1876.37,-1696.7 1873.31,-1698.4 1873.31,-1698.4 1873.31,-1698.4 1876.37,-1696.7 1871.78,-1695.65 1879.43,-1695.01 1879.43,-1695.01"/>
<text text-anchor="middle" x="1609.89" y="-1880.57" font-family="bold" font-size="7.00" fill="#08cf20">ticonsultores.biz.ni. &#45;&gt; NOERROR</text>
</g>
<!-- n12&#45;&gt;n14 -->
<g id="edge27" class="edge">
<title>n12&#45;&gt;n14</title>
<path fill="none" stroke="black" stroke-dasharray="5,2" d="M1191.76,-2066.4C1216.33,-2032.84 1272.61,-1954.75 1315.39,-1886.17 1355.61,-1821.69 1398.17,-1742.54 1418.38,-1704.18"/>
<polygon fill="black" stroke="black" points="1421.66,-1697.94 1421.19,-1705.61 1420.03,-1701.04 1418.4,-1704.14 1418.4,-1704.14 1418.4,-1704.14 1420.03,-1701.04 1415.61,-1702.67 1421.66,-1697.94 1421.66,-1697.94"/>
<text text-anchor="middle" x="1386.89" y="-1880.57" font-family="bold" font-size="7.00" fill="#08cf20">ticonsultores.biz.ni. &#45;&gt; NOERROR</text>
</g>
<!-- n3&#45;&gt;n4 -->
<g id="edge28" class="edge">
<title>n3&#45;&gt;n4</title>
<path fill="none" stroke="#0099ff" stroke-width="2" d="M200,-1258.05C214.23,-1222.02 249.77,-1136.25 290.39,-1070.17 331.93,-1002.58 392.37,-930.84 423.39,-895.5"/>
<polygon fill="#0099ff" stroke="#0099ff" stroke-width="2" points="428.1,-890.15 425.84,-897.48 426.17,-893.11 423.85,-895.73 423.48,-895.4 423.1,-895.07 425.41,-892.45 421.11,-893.32 428.1,-890.15 428.1,-890.15"/>
<text text-anchor="middle" x="357.89" y="-1072.57" font-family="bold" font-size="7.00" fill="#08cf20">ticonsultores.biz.ni. &#45;&gt; NOERROR</text>
</g>
<!-- n7&#45;&gt;n4 -->
<g id="edge29" class="edge">
<title>n7&#45;&gt;n4</title>
<path fill="none" stroke="#0099ff" stroke-width="2" d="M443.39,-1258.15C443.39,-1194.72 443.39,-971.91 443.39,-897.54"/>
<polygon fill="#0099ff" stroke="#0099ff" stroke-width="2" points="443.39,-890.41 446.54,-897.41 443.89,-893.91 443.89,-897.41 443.39,-897.41 442.89,-897.41 442.89,-893.91 440.24,-897.41 443.39,-890.41 443.39,-890.41"/>
<text text-anchor="middle" x="510.89" y="-1072.57" font-family="bold" font-size="7.00" fill="#08cf20">ticonsultores.biz.ni. &#45;&gt; NOERROR</text>
</g>
<!-- n13&#45;&gt;n13 -->
<g id="edge30" class="edge">
<title>n13&#45;&gt;n13</title>
<path fill="none" stroke="black" stroke-dasharray="5,2" d="M1920.5,-1696.96C1960.58,-1729.85 2018.64,-1724.26 2018.64,-1680.17 2018.64,-1638.14 1965.9,-1631.09 1926.25,-1659"/>
<polygon fill="black" stroke="black" points="1920.5,-1663.37 1924.17,-1656.63 1923.29,-1661.26 1926.07,-1659.14 1926.07,-1659.14 1926.07,-1659.14 1923.29,-1661.26 1927.98,-1661.64 1920.5,-1663.37 1920.5,-1663.37"/>
<text text-anchor="middle" x="2038.14" y="-1678.57" font-family="bold" font-size="7.00" fill="#ff1000">TIMEOUT</text>
</g>
<!-- n8&#45;&gt;n4 -->
<g id="edge31" class="edge">
<title>n8&#45;&gt;n4</title>
<path fill="none" stroke="#0099ff" stroke-width="2" d="M686.78,-1258.05C672.55,-1222.02 637.01,-1136.25 596.39,-1070.17 554.85,-1002.58 494.41,-930.84 463.39,-895.5"/>
<polygon fill="#0099ff" stroke="#0099ff" stroke-width="2" points="458.68,-890.15 465.67,-893.32 461.36,-892.45 463.68,-895.07 463.3,-895.4 462.93,-895.73 460.61,-893.11 460.94,-897.48 458.68,-890.15 458.68,-890.15"/>
<text text-anchor="middle" x="667.89" y="-1072.57" font-family="bold" font-size="7.00" fill="#08cf20">ticonsultores.biz.ni. &#45;&gt; NOERROR</text>
</g>
<!-- n14&#45;&gt;n14 -->
<g id="edge32" class="edge">
<title>n14&#45;&gt;n14</title>
<path fill="none" stroke="black" stroke-dasharray="5,2" d="M1446.5,-1696.96C1486.58,-1729.85 1544.64,-1724.26 1544.64,-1680.17 1544.64,-1638.14 1491.9,-1631.09 1452.25,-1659"/>
<polygon fill="black" stroke="black" points="1446.5,-1663.37 1450.17,-1656.63 1449.29,-1661.26 1452.07,-1659.14 1452.07,-1659.14 1452.07,-1659.14 1449.29,-1661.26 1453.98,-1661.64 1446.5,-1663.37 1446.5,-1663.37"/>
<text text-anchor="middle" x="1564.14" y="-1678.57" font-family="bold" font-size="7.00" fill="#ff1000">TIMEOUT</text>
</g>
<!-- n9&#45;&gt;n9 -->
<g id="edge33" class="edge">
<title>n9&#45;&gt;n9</title>
<path fill="none" stroke="black" stroke-dasharray="5,2" d="M1266.24,-1293.62C1322.69,-1325.78 1403.43,-1319.96 1403.43,-1276.17 1403.43,-1234 1328.58,-1227.04 1272.62,-1255.29"/>
<polygon fill="black" stroke="black" points="1266.24,-1258.72 1270.92,-1252.63 1269.33,-1257.06 1272.41,-1255.41 1272.41,-1255.41 1272.41,-1255.41 1269.33,-1257.06 1273.9,-1258.18 1266.24,-1258.72 1266.24,-1258.72"/>
<text text-anchor="middle" x="1422.93" y="-1274.57" font-family="bold" font-size="7.00" fill="#ff1000">TIMEOUT</text>
</g>
</g>
</svg>
